<?xml version="1.0" encoding="iso-8859-1"?>
<!-- Generator: Adobe Illustrator 19.0.0, SVG Export Plug-In . SVG Version: 6.00 Build 0)  -->
<svg xmlns="http://www.w3.org/2000/svg" xmlns:xlink="http://www.w3.org/1999/xlink" version="1.1" id="Capa_1" x="0px" y="0px" viewBox="0 0 465 465" style="enable-background:new 0 0 465 465;" xml:space="preserve" width="512" height="512">
<g>
	<path style="fill:#FFE76D;" d="M232.5,313.52c39.76,0,71.99,32.23,71.99,71.99s-32.23,71.99-71.99,71.99s-71.99-32.23-71.99-71.99   S192.74,313.52,232.5,313.52z M248.76,353.79c0-8.98-7.28-16.26-16.26-16.26s-16.26,7.28-16.26,16.26   c0,8.97,7.28,16.25,16.26,16.25S248.76,362.76,248.76,353.79z"/>
	<path style="fill:#C7A395;" d="M393.82,70.47c11.58,15.36,17.7,32.8,17.7,50.43s-6.12,35.07-17.7,50.43   c-10.01,13.27-23.86,24.92-41.17,34.64c-32.58,18.27-75.25,28.33-120.15,28.33s-87.57-10.06-120.15-28.33   c-17.31-9.72-31.16-21.37-41.17-34.64c-11.58-15.36-17.7-32.8-17.7-50.43s6.12-35.07,17.7-50.43   c10.01-13.27,23.86-24.92,41.17-34.63C144.93,17.56,187.6,7.5,232.5,7.5s87.57,10.06,120.15,28.34   C369.96,45.55,383.81,57.2,393.82,70.47z M375.4,145.53c4.27-7.79,6.56-16.06,6.56-24.63c0-46.3-66.92-83.84-149.46-83.84   S83.04,74.6,83.04,120.9c0,8.57,2.29,16.84,6.56,24.63c18.75,34.28,75.64,59.21,142.9,59.21S356.65,179.81,375.4,145.53z"/>
	<path style="fill:#FF6A2E;" d="M393.82,171.33c-10.01,13.27-23.86,24.92-41.17,34.64c-32.58,18.27-75.25,28.33-120.15,28.33   s-87.57-10.06-120.15-28.33c-17.31-9.72-31.16-21.37-41.17-34.64c-11.58-15.36-17.7-32.8-17.7-50.43c0,0,0,31.64,0,49.27   c0,17.63,6.12,35.07,17.7,50.43c10.01,13.27,23.86,24.92,41.17,34.64c32.58,18.27,75.25,28.33,120.15,28.33   s87.57-10.06,120.15-28.33c17.31-9.72,31.16-21.37,41.17-34.64c11.58-15.36,17.7-32.8,17.7-50.43c0-17.63,0-49.27,0-49.27   C411.52,138.53,405.4,155.97,393.82,171.33z"/>
	<path style="fill:#945136;" d="M381.96,120.9c0,8.57-2.29,16.84-6.56,24.63c-18.76-34.28-75.64-59.2-142.9-59.2   s-124.14,24.92-142.9,59.2c-4.27-7.79-6.56-16.06-6.56-24.63c0-46.3,66.92-83.84,149.46-83.84S381.96,74.6,381.96,120.9z"/>
	<path style="fill:#591200;" d="M399.808,65.953c-10.634-14.103-25.267-26.437-43.492-36.659C322.639,10.403,278.667,0,232.5,0   c-46.168,0-90.14,10.403-123.816,29.294c-18.225,10.223-32.857,22.557-43.491,36.66c-12.57,16.672-19.215,35.672-19.215,54.947   v49.27c0,19.275,6.645,38.275,19.215,54.947c10.634,14.102,25.267,26.436,43.491,36.659   c31.848,17.865,72.904,28.133,116.316,29.196v15.411c-40.325,3.793-71.99,37.825-71.99,79.126c0,43.831,35.659,79.49,79.49,79.49   s79.49-35.659,79.49-79.49c0-41.301-31.665-75.333-71.99-79.126v-15.411c43.411-1.063,84.468-11.332,116.315-29.196   c18.226-10.223,32.858-22.557,43.492-36.66c12.57-16.672,19.215-35.672,19.215-54.947V120.9   C419.022,101.625,412.378,82.625,399.808,65.953z M77.169,74.984c9.377-12.435,22.449-23.406,38.853-32.608   C147.494,24.722,188.86,15,232.5,15s85.005,9.722,116.478,27.376c16.404,9.202,29.477,20.173,38.854,32.608   c10.593,14.049,16.191,29.927,16.191,45.917s-5.599,31.867-16.191,45.916c-9.377,12.436-22.449,23.407-38.854,32.608   c-29.663,16.639-68.116,26.229-108.978,27.277v-14.565c38.383-1.031,74.31-9.96,101.854-25.412   c30.699-17.221,47.606-40.597,47.606-65.824s-16.907-48.603-47.606-65.824C312.522,38.623,273.687,29.562,232.5,29.562   s-80.022,9.061-109.354,25.515C92.447,72.297,75.54,95.674,75.54,120.9s16.907,48.603,47.606,65.824   c27.544,15.451,63.47,24.38,101.854,25.412v14.565c-40.862-1.048-79.316-10.637-108.979-27.277   c-16.403-9.202-29.476-20.172-38.853-32.607C66.576,152.768,60.978,136.89,60.978,120.9S66.576,89.033,77.169,74.984z    M232.5,187.239c-4.143,0-7.5,3.358-7.5,7.5v2.391c-35.826-1.012-69.151-9.26-94.515-23.487   c-25.76-14.449-39.945-33.18-39.945-52.742s14.186-38.292,39.945-52.742c27.126-15.216,63.356-23.597,102.015-23.597   s74.889,8.38,102.015,23.597c25.76,14.449,39.945,33.18,39.945,52.742s-14.186,38.292-39.945,52.742   c-25.364,14.228-58.689,22.475-94.515,23.487v-2.391C240,190.597,236.643,187.239,232.5,187.239z M116.021,248.695   c-16.403-9.202-29.476-20.173-38.853-32.608c-10.593-14.049-16.191-29.927-16.191-45.917v-0.352   c1.323,2.039,2.724,4.052,4.215,6.029c10.634,14.103,25.267,26.436,43.491,36.659c31.847,17.865,72.904,28.134,116.316,29.197   v34.268C184.139,274.923,145.685,265.334,116.021,248.695z M227.383,346.693c1.341,1.254,3.136,2.027,5.117,2.027   s3.777-0.773,5.117-2.027c2.201,1.592,3.641,4.174,3.641,7.092c0,4.829-3.929,8.757-8.758,8.757s-8.758-3.929-8.758-8.757   C223.742,350.868,225.182,348.286,227.383,346.693z M296.99,385.51c0,35.56-28.931,64.49-64.49,64.49s-64.49-28.93-64.49-64.49   c0-33.022,24.953-60.31,56.99-64.04v9.778c-9.435,3.148-16.258,12.058-16.258,22.538c0,13.1,10.657,23.757,23.758,23.757   s23.758-10.658,23.758-23.757c0-10.479-6.823-19.39-16.258-22.538v-9.778C272.037,325.2,296.99,352.488,296.99,385.51z    M404.022,170.17c0,15.99-5.599,31.868-16.191,45.916c-9.377,12.436-22.449,23.406-38.854,32.608   c-29.664,16.639-68.116,26.228-108.978,27.276v-34.268c43.412-1.063,84.469-11.332,116.315-29.197   c18.225-10.222,32.857-22.556,43.492-36.659c1.491-1.977,2.892-3.99,4.215-6.029V170.17z"/>
	<path style="fill:#591200;" d="M352.368,127.591c2.277,0,4.526-1.033,6-2.993c2.489-3.311,1.824-8.012-1.486-10.502   c-29.805-22.41-75.14-35.263-124.382-35.263s-94.578,12.853-124.382,35.263c-3.311,2.49-3.976,7.191-1.486,10.502   c2.489,3.311,7.191,3.978,10.502,1.487c26.857-20.195,69.985-32.252,115.366-32.252s88.509,12.057,115.366,32.252   C349.217,127.1,350.8,127.591,352.368,127.591z"/>
</g>















</svg>
